<svg xmlns="http://www.w3.org/2000/svg" viewBox="0 0 200 64" width="200" height="64" role="img" aria-label="SasaPay">
  <rect width="200" height="64" rx="10" fill="#ffffff"/>
  <g>
    <circle cx="34" cy="32" r="20" fill="#0a7d3e"/>
    <path d="M40 25c-2.4-1.8-6.5-2.4-9.2-1.1-2.9 1.4-3.4 4.6-1 6.3 1.6 1.1 4 1.4 6 2.2 2.4 1 2.3 3.4-.2 4.1-2.3.7-4.8-.1-6.6-1.4l-1.7 3.5c2.6 1.9 7 2.6 10.1 1.2 3.2-1.4 3.8-5 1.2-6.9-1.6-1.2-4.1-1.5-6.1-2.3-2.2-.9-2-3 .3-3.6 2-.5 4.1.2 5.6 1.2z" fill="#ffffff"/>
    <text x="60" y="40" font-family="Arial, Helvetica, sans-serif" font-size="24" font-weight="700"><tspan fill="#0a7d3e">Sasa</tspan><tspan fill="#f7941d">Pay</tspan></text>
  </g>
</svg>
